<?xml version="1.0" standalone="no"?>
<!DOCTYPE svg PUBLIC "-//W3C//DTD SVG 20010904//EN"
 "http://www.w3.org/TR/2001/REC-SVG-20010904/DTD/svg10.dtd">
<svg version="1.0" xmlns="http://www.w3.org/2000/svg"
 width="512.000000pt" height="512.000000pt" viewBox="0 0 512.000000 512.000000"
 preserveAspectRatio="xMidYMid meet">

<g transform="translate(-115.000000,630.000000) scale(0.14590,-0.145900)"
fill="#000000" stroke="none">
<path d="M2405 4280 c-131 -14 -275 -44 -400 -85 -148 -49 -362 -161 -488
-256 -199 -149 -401 -388 -506 -598 -387 -771 -134 -1730 581 -2209 223 -149
459 -239 726 -277 162 -23 441 -16 582 14 540 117 974 452 1210 936 165 339
215 698 151 1069 -41 230 -151 493 -288 686 -83 117 -258 294 -377 382 -338
252 -786 379 -1191 338z m280 -570 c188 -37 371 -118 501 -222 149 -120 219
-253 231 -438 3 -52 4 -93 1 -90 -3 3 -24 50 -47 104 -52 122 -93 186 -160
251 l-52 50 20 -55 c11 -30 36 -119 55 -197 20 -86 43 -155 57 -174 30 -42 91
-69 310 -134 101 -30 208 -67 238 -82 72 -37 101 -89 101 -180 0 -73 -13 -108
-68 -190 -21 -32 -53 -98 -70 -148 -26 -76 -39 -97 -77 -132 -47 -43 -95 -63
-150 -63 l-30 0 51 48 c70 64 98 121 99 199 1 60 2 63 52 115 63 67 83 105 85
163 4 88 -64 138 -191 138 -81 0 -138 -17 -178 -55 -60 -56 -1 -168 147 -279
l35 -26 -64 -72 c-269 -303 -565 -301 -971 7 -59 45 -92 52 -128 26 -16 -11
-22 -25 -22 -54 0 -31 6 -44 34 -68 51 -44 110 -83 216 -142 52 -29 96 -53 98
-55 1 -1 -18 -42 -43 -91 -114 -226 -125 -496 -32 -776 32 -96 33 -98 12 -104
-11 -4 -101 -7 -200 -7 -261 1 -434 39 -658 147 -264 127 -486 319 -654 568
l-66 97 30 38 c104 132 233 427 303 696 13 48 27 87 31 87 5 0 50 -40 102 -89
92 -88 138 -155 152 -218 13 -63 82 -103 176 -103 147 0 305 152 363 349 21
70 21 203 0 340 -41 271 9 461 150 574 l51 40 -45 -7 c-119 -18 -184 -63 -238
-164 -67 -126 -84 -282 -53 -494 19 -125 20 -157 11 -210 -30 -162 -141 -288
-253 -288 -29 0 -37 4 -37 18 0 9 -14 46 -31 82 -25 55 -55 90 -193 225 -178
174 -227 238 -251 330 -21 82 -19 113 10 172 30 59 86 106 220 183 104 60 124
74 262 189 109 89 153 118 225 145 125 48 358 59 533 26z"/>
<path d="M2775 3216 c-100 -43 -124 -183 -44 -250 107 -91 259 -26 259 111 0
112 -112 184 -215 139z m178 -78 c18 -28 -7 -68 -43 -68 -38 0 -59 35 -40 69
14 27 67 26 83 -1z"/>
</g>
</svg>
